<?xml version="1.0" encoding="UTF-8"?>
<svg id="Layer_2" data-name="Layer 2" xmlns="http://www.w3.org/2000/svg" viewBox="0 0 136.06 136.06">
  <defs>
    <style>
      .cls-1 {
        fill: none;
      }

      .cls-2 {
        fill: #007ec5;
      }

      .cls-3 {
        fill: #fff;
      }

      .cls-4 {
        fill: #f47920;
      }
    </style>
  </defs>
  <g id="Layer_1-2" data-name="Layer 1">
    <g>
      <rect class="cls-1" width="136.06" height="136.06"/>
      <g>
        <rect class="cls-2" x="34.02" y="34.02" width="68.03" height="68.03" rx="18.9" ry="18.9"/>
        <g>
          <g>
            <path class="cls-4" d="M86.62,51.03c-9.58-10.04-25.49-10.18-35.25-.43-7.91,7.91-9.31,19.87-4.2,29.22.1.18.17.36.23.56.1.37.11.76.06,1.14l-.77,5.8c0,1.54,1.25,2.79,2.79,2.79l5.93-.77c.54-.07,1.09.03,1.56.29h.01c9.25,5.06,21.05,3.74,28.96-3.95,9.63-9.36,9.94-24.94.67-34.66Z"/>
            <path class="cls-3" d="M68.81,93.54c-4.18,0-8.39-1.03-12.27-3.15-.32-.17-.67-.24-1.02-.19l-5.93.77s-.08,0-.12,0c-2.04,0-3.7-1.66-3.7-3.7,0-.04,0-.08,0-.12l.77-5.79c.04-.29.03-.56-.04-.78-.04-.13-.09-.25-.15-.37-5.4-9.86-3.61-22.3,4.36-30.25,4.83-4.82,11.23-7.47,18.05-7.47.1,0,.21,0,.31,0,6.93.08,13.39,2.89,18.19,7.91h0c9.62,10.07,9.31,26.16-.69,35.87-4.91,4.76-11.3,7.24-17.77,7.24ZM55.75,88.37c.58,0,1.14.14,1.66.42,9.19,5.02,20.4,3.49,27.91-3.8,9.29-9.02,9.58-23.96.65-33.32-4.45-4.66-10.45-7.27-16.89-7.34-6.44-.07-12.5,2.39-17.05,6.93-7.4,7.38-9.06,18.94-4.05,28.09.13.23.23.48.3.74.13.46.16.97.09,1.51l-.76,5.72c.03.99.83,1.8,1.83,1.82l5.86-.76c.15-.02.3-.03.46-.03Z"/>
          </g>
          <path class="cls-3" d="M61.2,73.77c.32-.75.52-1.22.71-1.69,1.51-3.81,3.02-7.63,4.54-11.44.19-.49.41-.99.73-1.4.71-.91,1.88-.92,2.6-.02.3.37.5.83.68,1.27,1.58,3.93,3.14,7.87,4.7,11.81.16.4.34.79.61,1.39.22-.55.38-.89.5-1.24,1.43-4.13,2.84-8.26,4.28-12.39.5-1.43,1.7-1.9,2.9-1.19.76.45,1.08,1.16.88,2.02-.08.34-.22.67-.34,1-2.08,5.77-4.15,11.55-6.23,17.32-.15.41-.29.84-.52,1.21-.69,1.14-2.05,1.23-2.85.16-.31-.41-.52-.92-.72-1.41-1.54-3.9-3.06-7.81-4.59-11.71-.16-.4-.34-.78-.6-1.36-.27.63-.47,1.05-.64,1.49-1.53,3.9-3.06,7.81-4.59,11.71-.16.41-.31.83-.55,1.2-.69,1.08-2.14,1.12-2.87.06-.25-.36-.4-.79-.55-1.2-2.12-5.85-4.23-11.71-6.34-17.56-.09-.25-.2-.49-.26-.75-.28-1.17.19-2.04,1.29-2.39,1.12-.36,1.96.04,2.38,1.24,1.29,3.66,2.54,7.34,3.81,11.01.3.86.62,1.72,1.02,2.85Z"/>
        </g>
      </g>
    </g>
    <g>
      <path class="cls-3" d="M84.23,71.43h-.05c-1.16,0-1.91.87-1.96,2.27,0,.27,0,18.7,0,20.33,0,1.36.73,2.23,1.89,2.25h.05c1.16,0,1.91-.87,1.96-2.27,0-.27,0-18.7,0-20.33,0-1.36-.73-2.23-1.89-2.25Z"/>
      <path class="cls-3" d="M96.25,72.67l-.04-.03c-.86-.78-1.88-.78-2.66,0-.15.15-9.99,10.94-10.85,11.9-.72.8-.65,1.8.2,2.59l.04.03c.86.78,1.88.78,2.66,0,.15-.15,9.99-10.94,10.85-11.9.72-.8.65-1.8-.2-2.59Z"/>
      <path class="cls-3" d="M95.75,96.24l.04-.03c.97-.64,1.25-1.57.74-2.45-.1-.17-7.42-11.31-8.07-12.29-.55-.82-1.5-.94-2.48-.32l-.04.03c-.97.64-1.25,1.57-.74,2.45.1.17,7.42,11.31,8.07,12.29.55.82,1.5.94,2.48.32Z"/>
    </g>
  </g>
</svg>