<?xml version="1.0" encoding="UTF-8"?>
<svg id="Layer_2" data-name="Layer 2" xmlns="http://www.w3.org/2000/svg" viewBox="0 0 247.79 136.06">
  <defs>
    <style>
      .cls-1 {
        fill: none;
      }

      .cls-2 {
        fill: #007ec5;
      }

      .cls-3 {
        fill: #fff;
      }

      .cls-4 {
        fill: #f47920;
      }
    </style>
  </defs>
  <g id="Layer_1-2" data-name="Layer 1">
    <rect class="cls-1" width="247.79" height="136.06"/>
    <path class="cls-4" d="M204.43,44.57c-13.24-13.87-35.23-14.07-48.72-.59-10.94,10.93-12.87,27.45-5.81,40.36.13.24.24.5.31.77.14.51.16,1.05.09,1.58l-1.06,8.01c0,2.13,1.73,3.86,3.86,3.86l8.19-1.07c.74-.1,1.5.04,2.16.4h.02c12.78,6.99,29.1,5.17,40.04-5.45,13.31-12.93,13.74-34.44.93-47.86Z"/>
    <path class="cls-2" d="M44.57,79.02c-.41,1.04-.81,1.58-1.8,1.58s-1.49-.54-1.85-1.53l-6.75-18.73c-.45-1.22.14-2.12,1.08-2.52.9-.36,2.07-.22,2.52,1.04l4.91,14.23,5.54-13.96c.41-.99,1.08-1.49,1.8-1.49s1.4.49,1.8,1.49l5.54,13.96,4.91-14.23c.45-1.26,1.62-1.39,2.52-1.04.95.41,1.53,1.31,1.08,2.52l-6.75,18.73c-.36.99-.86,1.53-1.85,1.53-.72,0-1.4-.54-1.8-1.58l-5.45-13.91-5.45,13.91Z"/>
    <path class="cls-2" d="M68,69.12c0-6.35,4.19-11.93,11.44-11.93s11.44,5.58,11.44,11.93-4.19,11.93-11.44,11.93-11.44-5.54-11.44-11.93ZM86.95,69.12c0-4.59-2.79-8.15-7.52-8.15s-7.52,3.56-7.52,8.15,2.79,8.19,7.52,8.19,7.52-3.6,7.52-8.19Z"/>
    <path class="cls-2" d="M105.51,57.18s-.01,0-.02,0h-.46s-.01,0-.02,0c-5.54,0-9.91,4.19-9.91,9.5v11.93c0,1.31.99,1.98,1.98,1.98s1.94-.67,1.94-1.98v-12.07c0-3.02,2.43-5.58,5.99-5.58,0,0,.01,0,.02,0h.46s.01,0,.02,0c3.56,0,5.99,2.57,5.99,5.58v12.07c0,1.31.95,1.98,1.94,1.98s1.98-.67,1.98-1.98v-11.93c0-5.31-4.37-9.5-9.91-9.5Z"/>
    <path class="cls-2" d="M141.61,68.13v10.04c0,6.35-4.05,11.84-11.3,11.84-3.78,0-6.71-.99-8.82-3.42-.86-.99-.54-2.07.23-2.7.72-.67,1.85-.72,2.75.18,1.13,1.13,2.79,2.25,5.85,2.25,4.64,0,7.38-3.47,7.38-7.92v-.13c-1.85,1.76-4.32,2.79-7.38,2.79-7.02,0-11.08-5.54-11.08-11.93s4.05-11.93,11.08-11.93,11.3,5.72,11.3,10.94ZM137.69,69.12c0-4.59-2.29-8.15-7.02-8.15s-7.52,3.56-7.52,8.15,2.79,8.19,7.52,8.19,7.02-3.6,7.02-8.19Z"/>
    <g>
      <path class="cls-3" d="M193.47,58.43c-4.06-.19-7.2,3.88-7.22,9.15,0,0,0,11.49,0,11.49,0,2.53,3.63,2.47,3.62-.08,0,0,0-11.37,0-11.37.03-5.93,6.57-5.71,6.66-.34,0,0,0,11.92,0,11.92-.01,2.55,3.82,2.4,3.82-.13-.15-5.97,1.84-20.7-6.88-20.63Z"/>
      <path class="cls-3" d="M203.94,58.43c-4.06-.19-7.2,3.88-7.22,9.15,0,0,0,11.49,0,11.49,0,2.53,3.63,2.47,3.62-.08,0,0,0-11.37,0-11.37.13-5.51,6.76-5.51,6.66-.34,0,0,0,11.92,0,11.92-.01,2.55,3.82,2.4,3.82-.13-.15-5.97,1.84-20.7-6.88-20.63Z"/>
    </g>
    <g>
      <path class="cls-3" d="M151.75,57.81h-.05c-1.16,0-1.91.87-1.96,2.27,0,.27,0,18.7,0,20.33,0,1.36.73,2.23,1.89,2.25h.05c1.16,0,1.91-.87,1.96-2.27,0-.27,0-18.7,0-20.33,0-1.36-.73-2.23-1.89-2.25Z"/>
      <path class="cls-3" d="M163.78,59.05l-.04-.03c-.86-.78-1.88-.78-2.66,0-.15.15-9.99,10.94-10.85,11.9-.72.8-.65,1.8.2,2.59l.04.03c.86.78,1.88.78,2.66,0,.15-.15,9.99-10.94,10.85-11.9.72-.8.65-1.8-.2-2.59Z"/>
      <path class="cls-3" d="M163.28,82.62l.04-.03c.97-.64,1.25-1.57.74-2.45-.1-.17-7.42-11.31-8.07-12.29-.55-.82-1.5-.94-2.48-.32l-.04.03c-.97.64-1.25,1.57-.74,2.45.1.17,7.42,11.31,8.07,12.29.55.82,1.5.94,2.48.32Z"/>
    </g>
    <path class="cls-3" d="M163.96,70.26c0-6.35,3.93-11.93,10.74-11.93s10.74,5.58,10.74,11.93-3.93,11.93-10.74,11.93-10.74-5.54-10.74-11.93ZM181.76,70.26c0-4.59-2.62-8.15-7.06-8.15s-7.06,3.56-7.06,8.15,2.62,8.19,7.06,8.19,7.06-3.6,7.06-8.19Z"/>
  </g>
</svg>